<svg width="36" height="43" viewBox="0 0 36 43" fill="none" xmlns="http://www.w3.org/2000/svg">
<path d="M30.0988 22.7231C30.0797 19.1999 31.6674 16.5407 34.881 14.5823C33.0829 12 30.3666 10.5792 26.78 10.3008C23.3847 10.032 19.6738 12.2879 18.3156 12.2879C16.881 12.2879 13.5909 10.3968 11.0085 10.3968C5.67163 10.4832 0 14.6687 0 23.1839C0 25.6991 0.459086 28.2975 1.37726 30.9791C2.60149 34.5023 7.02019 43.1422 11.6302 42.9982C14.0404 42.9406 15.7428 41.2798 18.8799 41.2798C21.9214 41.2798 23.4995 42.9982 26.187 42.9982C30.8353 42.931 34.8332 35.0783 36 31.5455C29.7641 28.5983 30.0988 22.9055 30.0988 22.7231ZM24.6854 6.95997C27.2965 3.84958 27.0574 1.0176 26.9809 0C24.6759 0.134399 22.0074 1.57439 20.4867 3.35039C18.813 5.25118 17.8278 7.60317 18.0383 10.2528C20.5345 10.4448 22.8108 9.15836 24.6854 6.95997Z" fill="#222F3F"/>
</svg>
