<svg width="86" height="86" viewBox="0 0 86 86" fill="none" xmlns="http://www.w3.org/2000/svg">
<rect width="86" height="86" rx="5" fill="#010101"/>
<path d="M16.3576 30.1903L41.8352 41.7478C42.5789 42.0857 43.42 42.0857 44.1637 41.7478L69.6413 30.1903C71.4514 29.3689 71.4514 26.6334 69.6413 25.812L44.1648 14.2535C43.7994 14.0864 43.4023 14 43.0005 14C42.5988 14 42.2017 14.0864 41.8363 14.2535L16.3576 25.811C14.5475 26.6324 14.5475 29.3689 16.3576 30.1903ZM69.6424 39.8458L63.2889 36.9659L45.6097 44.9797C44.7828 45.3549 43.9045 45.5452 43 45.5452C42.0955 45.5452 41.2183 45.3549 40.3903 44.9797L22.7122 36.9659L16.3576 39.8458C14.5475 40.6661 14.5475 43.4004 16.3576 44.2207L41.8352 55.7694C42.5789 56.1063 43.42 56.1063 44.1637 55.7694L69.6424 44.2207C71.4525 43.4004 71.4525 40.6661 69.6424 39.8458ZM69.6424 53.8237L63.3129 50.9548L45.6097 58.9795C44.7828 59.3547 43.9045 59.545 43 59.545C42.0955 59.545 41.2183 59.3547 40.3903 58.9795L22.6882 50.9548L16.3576 53.8237C14.5475 54.644 14.5475 57.3783 16.3576 58.1986L41.8352 69.7473C42.5789 70.0842 43.42 70.0842 44.1637 69.7473L69.6424 58.1986C71.4525 57.3783 71.4525 54.644 69.6424 53.8237Z" fill="white"/>
</svg>
