<svg width="49" height="34" viewBox="0 0 49 34" fill="none" xmlns="http://www.w3.org/2000/svg">
<path d="M7.35 14.5714C10.0527 14.5714 12.25 12.3933 12.25 9.71429C12.25 7.03527 10.0527 4.85714 7.35 4.85714C4.64734 4.85714 2.45 7.03527 2.45 9.71429C2.45 12.3933 4.64734 14.5714 7.35 14.5714ZM41.65 14.5714C44.3527 14.5714 46.55 12.3933 46.55 9.71429C46.55 7.03527 44.3527 4.85714 41.65 4.85714C38.9473 4.85714 36.75 7.03527 36.75 9.71429C36.75 12.3933 38.9473 14.5714 41.65 14.5714ZM44.1 17H39.2C37.8525 17 36.6352 17.5388 35.747 18.4116C38.8325 20.0888 41.0222 23.117 41.4969 26.7143H46.55C47.9052 26.7143 49 25.629 49 24.2857V21.8571C49 19.1781 46.8027 17 44.1 17ZM24.5 17C29.2392 17 33.075 13.1978 33.075 8.5C33.075 3.80223 29.2392 0 24.5 0C19.7608 0 15.925 3.80223 15.925 8.5C15.925 13.1978 19.7608 17 24.5 17ZM30.38 19.4286H29.7445C28.152 20.1875 26.3834 20.6429 24.5 20.6429C22.6166 20.6429 20.8556 20.1875 19.2555 19.4286H18.62C13.7506 19.4286 9.8 23.3446 9.8 28.1714V30.3571C9.8 32.3683 11.4461 34 13.475 34H35.525C37.5539 34 39.2 32.3683 39.2 30.3571V28.1714C39.2 23.3446 35.2494 19.4286 30.38 19.4286ZM13.253 18.4116C12.3648 17.5388 11.1475 17 9.8 17H4.9C2.19734 17 0 19.1781 0 21.8571V24.2857C0 25.629 1.09484 26.7143 2.45 26.7143H7.49547C7.97781 23.117 10.1675 20.0888 13.253 18.4116Z" fill="#7A0C2E"/>
</svg>
