<svg width="86" height="86" viewBox="0 0 86 86" fill="none" xmlns="http://www.w3.org/2000/svg">
<rect width="86" height="86" rx="5" fill="#010101"/>
<path d="M39.5216 52.7778L37.8192 59.5873L35.5494 61.8571H53.7081L51.4383 59.5873L49.7359 52.7778M24.2002 43.6984H65.0573M28.7399 52.7778H60.5177C61.7217 52.7778 62.8763 52.2995 63.7277 51.4481C64.579 50.5968 65.0573 49.4421 65.0573 48.2381V25.5397C65.0573 24.3357 64.579 23.181 63.7277 22.3296C62.8763 21.4783 61.7217 21 60.5177 21H28.7399C27.5359 21 26.3812 21.4783 25.5298 22.3296C24.6785 23.181 24.2002 24.3357 24.2002 25.5397V48.2381C24.2002 49.4421 24.6785 50.5968 25.5298 51.4481C26.3812 52.2995 27.5359 52.7778 28.7399 52.7778Z" stroke="white" stroke-width="2" stroke-linecap="round" stroke-linejoin="round"/>
<path d="M30.9971 41.8H21.1171C19.9483 41.8 19 42.7359 19 43.8893V61.9965C19 63.1499 19.9483 64.0858 21.1171 64.0858H30.9971C32.166 64.0858 33.1143 63.1499 33.1143 61.9965V43.8893C33.1143 42.7359 32.166 41.8 30.9971 41.8ZM26.0571 62.6929C25.2764 62.6929 24.6457 62.0705 24.6457 61.3C24.6457 60.5296 25.2764 59.9072 26.0571 59.9072C26.8378 59.9072 27.4686 60.5296 27.4686 61.3C27.4686 62.0705 26.8378 62.6929 26.0571 62.6929Z" fill="white"/>
<path d="M69.0103 42.543H54.4185C53.32 42.543 52.4287 43.4476 52.4287 44.5626V62.0662C52.4287 63.1812 53.32 64.0858 54.4185 64.0858H69.0103C70.1089 64.0858 71.0001 63.1812 71.0001 62.0662V44.5626C71.0001 43.4476 70.1089 42.543 69.0103 42.543ZM61.7144 62.7394C60.9807 62.7394 60.3879 62.1377 60.3879 61.393C60.3879 60.6482 60.9807 60.0465 61.7144 60.0465C62.4482 60.0465 63.041 60.6482 63.041 61.393C63.041 62.1377 62.4482 62.7394 61.7144 62.7394ZM69.0103 58.1952C69.0103 58.4729 68.7865 58.7001 68.5129 58.7001H54.916C54.6424 58.7001 54.4185 58.4729 54.4185 58.1952V45.0675C54.4185 44.7898 54.6424 44.5626 54.916 44.5626H68.5129C68.7865 44.5626 69.0103 44.7898 69.0103 45.0675V58.1952Z" fill="white"/>
</svg>
